<?xml version="1.0" encoding="UTF-8"?>
<!DOCTYPE svg PUBLIC "-//W3C//DTD SVG 1.1//EN" "http://www.w3.org/Graphics/SVG/1.1/DTD/svg11.dtd">
<svg xmlns="http://www.w3.org/2000/svg" version="1.1" width="445px" height="207px" style="shape-rendering:geometricPrecision; text-rendering:geometricPrecision; image-rendering:optimizeQuality; fill-rule:evenodd; clip-rule:evenodd" xmlns:xlink="http://www.w3.org/1999/xlink">
<g><path style="opacity:1" fill="#000000" d="M -0.5,-0.5 C 147.833,-0.5 296.167,-0.5 444.5,-0.5C 444.5,68.5 444.5,137.5 444.5,206.5C 296.167,206.5 147.833,206.5 -0.5,206.5C -0.5,137.5 -0.5,68.5 -0.5,-0.5 Z"/></g>
<g><path style="opacity:1" fill="#f5f3ee" d="M 69.5,26.5 C 75.8333,26.5 82.1667,26.5 88.5,26.5C 88.5,30.5 88.5,34.5 88.5,38.5C 84.1667,38.5 79.8333,38.5 75.5,38.5C 75.33,39.8221 75.6634,40.9887 76.5,42C 80.4862,42.4988 84.4862,42.6655 88.5,42.5C 88.5,46.5 88.5,50.5 88.5,54.5C 82.4908,54.6662 76.4908,54.4995 70.5,54C 67.3333,52.8333 65.1667,50.6667 64,47.5C 63.3333,42.1667 63.3333,36.8333 64,31.5C 65.7297,29.5981 67.563,27.9314 69.5,26.5 Z"/></g>
<g><path style="opacity:1" fill="#edeeee" d="M 123.5,27.5 C 123.45,32.5518 123.95,37.5518 125,42.5C 125.278,43.4158 125.778,44.0825 126.5,44.5C 127.324,47.7644 127.658,51.0977 127.5,54.5C 122.5,54.5 117.5,54.5 112.5,54.5C 112.167,50.5 111.833,50.5 111.5,54.5C 108.167,54.5 104.833,54.5 101.5,54.5C 103.221,45.2256 104.555,35.8923 105.5,26.5C 111.69,26.1771 117.69,26.5104 123.5,27.5 Z"/></g>
<g><path style="opacity:1" fill="#f1eeeb" d="M 141.5,26.5 C 148.508,26.3337 155.508,26.5004 162.5,27C 165.889,28.9716 167.222,31.9716 166.5,36C 166.606,39.187 165.939,42.187 164.5,45C 165.872,48.0261 166.538,51.1927 166.5,54.5C 162.833,54.5 159.167,54.5 155.5,54.5C 155.872,51.9783 155.039,49.9783 153,48.5C 152.505,50.4727 152.338,52.4727 152.5,54.5C 148.833,54.5 145.167,54.5 141.5,54.5C 141.5,45.1667 141.5,35.8333 141.5,26.5 Z"/></g>
<g><path style="opacity:1" fill="#f2f1ee" d="M 199.5,26.5 C 205.509,26.3338 211.509,26.5005 217.5,27C 223.48,29.5087 225.814,34.0087 224.5,40.5C 226.026,47.63 223.359,52.13 216.5,54C 211.177,54.4994 205.844,54.666 200.5,54.5C 199.932,45.177 199.599,35.8436 199.5,26.5 Z"/></g>
<g><path style="opacity:1" fill="#f1f0ed" d="M 238.5,26.5 C 246.833,26.5 255.167,26.5 263.5,26.5C 263.5,29.5 263.5,32.5 263.5,35.5C 258.968,35.0692 254.635,35.5692 250.5,37C 254.635,38.4308 258.968,38.9308 263.5,38.5C 263.5,40.5 263.5,42.5 263.5,44.5C 247.5,45.1667 247.5,45.8333 263.5,46.5C 263.5,49.1667 263.5,51.8333 263.5,54.5C 255.167,54.5 246.833,54.5 238.5,54.5C 238.5,45.1667 238.5,35.8333 238.5,26.5 Z"/></g>
<g><path style="opacity:1" fill="#f6f1e9" d="M 316.5,26.5 C 320.167,26.5 323.833,26.5 327.5,26.5C 328.167,38.5 328.833,38.5 329.5,26.5C 333.5,26.5 337.5,26.5 341.5,26.5C 341.5,35.8333 341.5,45.1667 341.5,54.5C 337.5,54.5 333.5,54.5 329.5,54.5C 328.833,43.8333 328.167,43.8333 327.5,54.5C 323.833,54.5 320.167,54.5 316.5,54.5C 316.5,45.1667 316.5,35.8333 316.5,26.5 Z"/></g>
<g><path style="opacity:1" fill="#f2f0eb" d="M 277.5,26.5 C 281.167,26.5 284.833,26.5 288.5,26.5C 288.546,35.7145 289.213,35.7145 290.5,26.5C 294.5,26.5 298.5,26.5 302.5,26.5C 302.137,30.9841 301.137,35.3174 299.5,39.5C 301.297,44.3516 302.297,49.3516 302.5,54.5C 298.5,54.5 294.5,54.5 290.5,54.5C 289.2,45.2756 288.534,45.2756 288.5,54.5C 284.833,54.5 281.167,54.5 277.5,54.5C 277.5,45.1667 277.5,35.8333 277.5,26.5 Z"/></g>
<g><path style="opacity:1" fill="#eff0ee" d="M 360.5,26.5 C 364.846,26.3343 369.179,26.501 373.5,27C 375.081,27.7065 376.581,28.5399 378,29.5C 379.576,35.3877 379.909,41.3877 379,47.5C 378.654,49.8477 377.487,51.6811 375.5,53C 370.618,54.5547 365.618,54.888 360.5,54C 358,52.8333 356.167,51 355,48.5C 354.333,42.8333 354.333,37.1667 355,31.5C 356.73,29.5981 358.563,27.9314 360.5,26.5 Z"/></g>
<g><path style="opacity:1" fill="#d1975b" d="M 123.5,27.5 C 125.02,32.9478 126.02,38.6144 126.5,44.5C 125.778,44.0825 125.278,43.4158 125,42.5C 123.95,37.5518 123.45,32.5518 123.5,27.5 Z"/></g>
<g><path style="opacity:1" fill="#32161f" d="M 113.5,35.5 C 114.725,36.1522 115.392,37.3189 115.5,39C 115.917,41.4979 116.251,43.9979 116.5,46.5C 115.5,46.5 114.5,46.5 113.5,46.5C 111.993,45.7137 111.993,42.047 113.5,35.5 Z"/></g>
<g><path style="opacity:1" fill="#161c31" d="M 211.5,36.5 C 213.379,38.9151 213.713,41.5818 212.5,44.5C 211.52,41.9135 211.187,39.2469 211.5,36.5 Z"/></g>
<g><path style="opacity:1" fill="#651a2d" d="M 365.5,35.5 C 366.5,35.5 367.5,35.5 368.5,35.5C 368.5,38.8333 368.5,42.1667 368.5,45.5C 367.5,45.5 366.5,45.5 365.5,45.5C 365.5,42.1667 365.5,38.8333 365.5,35.5 Z"/></g>
<g><path style="opacity:1" fill="#bababa" d="M 185.5,109.5 C 174.673,110.148 163.673,110.148 152.5,109.5C 139.673,108.669 126.673,108.169 113.5,108C 152.896,97.9184 192.896,92.9184 233.5,93C 252.712,95.9418 270.712,102.275 287.5,112C 274.389,107.38 261.055,103.047 247.5,99C 221.813,92.9389 196.813,94.9389 172.5,105C 176.573,107.191 180.906,108.691 185.5,109.5 Z"/></g>
<g><path style="opacity:1" fill="#202020" d="M 129.5,110.5 C 136.982,109.508 144.648,109.175 152.5,109.5C 163.673,110.148 174.673,110.148 185.5,109.5C 186.473,109.987 187.473,110.487 188.5,111C 185.635,111.183 182.969,111.683 180.5,112.5C 163.459,112.087 146.459,111.421 129.5,110.5 Z"/></g>
<g><path style="opacity:1" fill="#bbbbbb" d="M 283.5,117.5 C 279.5,117.5 275.5,117.5 271.5,117.5C 271.5,116.5 271.5,115.5 271.5,114.5C 271.484,112.516 272.484,111.516 274.5,111.5C 278.388,112.27 281.388,114.27 283.5,117.5 Z"/></g>
<g><path style="opacity:1" fill="#bebebe" d="M 129.5,110.5 C 146.459,111.421 163.459,112.087 180.5,112.5C 205.577,113.63 230.577,115.63 255.5,118.5C 264.705,119.792 274.038,119.792 283.5,118.5C 299.512,117.057 315.512,117.224 331.5,119C 345.348,121.605 357.681,127.272 368.5,136C 361.796,132.486 354.796,129.152 347.5,126C 339.747,123.062 331.747,121.062 323.5,120C 303.151,119.626 282.817,120.126 262.5,121.5C 222.858,118.906 183.191,116.739 143.5,115C 123.45,114.001 103.45,114.501 83.5,116.5C 79.1327,115.991 74.7993,115.324 70.5,114.5C 70.2148,112.712 70.5481,111.045 71.5,109.5C 78.9678,112.724 86.6344,113.224 94.5,111C 106.162,110.5 117.829,110.333 129.5,110.5 Z"/></g>
<g><path style="opacity:1" fill="#3e3e3e" d="M 271.5,114.5 C 271.5,115.5 271.5,116.5 271.5,117.5C 275.5,117.5 279.5,117.5 283.5,117.5C 283.5,117.833 283.5,118.167 283.5,118.5C 274.038,119.792 264.705,119.792 255.5,118.5C 260.5,118.5 265.5,118.5 270.5,118.5C 270.232,116.901 270.566,115.568 271.5,114.5 Z"/></g>
<g><path style="opacity:1" fill="#d70000" d="M 70.5,117.5 C 71.3764,117.369 72.0431,117.702 72.5,118.5C 71.9399,120.854 71.2733,123.187 70.5,125.5C 69.2706,122.801 69.2706,120.135 70.5,117.5 Z"/></g>
<g><path style="opacity:1" fill="#d60807" d="M 355.5,133.5 C 360.547,135.191 365.213,137.691 369.5,141C 362.685,142.427 358.018,139.927 355.5,133.5 Z"/></g>
<g><path style="opacity:1" fill="#b9b6b0" d="M 172.5,172.5 C 173.978,172.238 175.311,172.571 176.5,173.5C 178.572,178.05 180.238,182.717 181.5,187.5C 180.178,187.67 179.011,187.337 178,186.5C 176.667,183.167 175.333,179.833 174,176.5C 173.362,177.609 172.862,178.775 172.5,180C 176.868,183.331 176.201,184.831 170.5,184.5C 170.5,185.5 170.5,186.5 170.5,187.5C 169.167,187.5 167.833,187.5 166.5,187.5C 167.724,182.154 169.724,177.154 172.5,172.5 Z"/></g>
<g><path style="opacity:1" fill="#e50000" d="M 283.5,172.5 C 284.978,172.238 286.311,172.571 287.5,173.5C 289.745,177.983 291.411,182.65 292.5,187.5C 291.325,187.719 290.325,187.386 289.5,186.5C 288.352,183.711 287.019,181.044 285.5,178.5C 284.713,179.242 284.047,180.075 283.5,181C 284.91,181.368 285.91,182.201 286.5,183.5C 283.694,184.105 281.36,185.438 279.5,187.5C 278.833,187.333 278.167,187.167 277.5,187C 279.601,182.195 281.601,177.362 283.5,172.5 Z"/></g>
<g><path style="opacity:1" fill="#e40000" d="M 344.5,172.5 C 346.144,172.286 347.644,172.62 349,173.5C 350.833,177.833 352.667,182.167 354.5,186.5C 353.311,187.429 351.978,187.762 350.5,187.5C 349.64,184.089 348.474,180.756 347,177.5C 346.13,178.108 345.63,178.941 345.5,180C 346.506,181.338 347.506,182.671 348.5,184C 345.169,184.7 342.169,185.867 339.5,187.5C 340.965,182.438 342.632,177.438 344.5,172.5 Z"/></g>
<g><path style="opacity:1" fill="#a9a29b" d="M 64.5,172.5 C 65.8333,172.5 67.1667,172.5 68.5,172.5C 68.5,177.5 68.5,182.5 68.5,187.5C 67.1667,187.5 65.8333,187.5 64.5,187.5C 64.5,182.5 64.5,177.5 64.5,172.5 Z"/></g>
<g><path style="opacity:1" fill="#b4b1a9" d="M 95.5,172.5 C 96.8333,172.5 98.1667,172.5 99.5,172.5C 99.6658,177.179 99.4992,181.845 99,186.5C 97.6124,187.554 96.1124,187.72 94.5,187C 93.0404,183.911 91.207,181.078 89,178.5C 88.502,181.482 88.3354,184.482 88.5,187.5C 87.5,187.5 86.5,187.5 85.5,187.5C 85.5,182.833 85.5,178.167 85.5,173.5C 87.1992,173.34 88.8659,173.506 90.5,174C 91.8742,176.583 93.3742,179.083 95,181.5C 95.498,178.518 95.6646,175.518 95.5,172.5 Z"/></g>
<g><path style="opacity:1" fill="#bdbbb6" d="M 116.5,172.5 C 127.51,170.347 131.343,174.68 128,185.5C 127.5,186 127,186.5 126.5,187C 123.183,187.498 119.85,187.665 116.5,187.5C 116.5,182.5 116.5,177.5 116.5,172.5 Z"/></g>
<g><path style="opacity:1" fill="#c2b8a6" d="M 146.5,172.5 C 147.5,172.5 148.5,172.5 149.5,172.5C 149.5,177.5 149.5,182.5 149.5,187.5C 148.5,187.5 147.5,187.5 146.5,187.5C 146.5,182.5 146.5,177.5 146.5,172.5 Z"/></g>
<g><path style="opacity:1" fill="#b0aba5" d="M 198.5,172.5 C 199.833,172.5 201.167,172.5 202.5,172.5C 202.73,180.091 204.396,180.258 207.5,173C 208.635,172.251 209.635,172.417 210.5,173.5C 209.363,175.607 208.363,177.773 207.5,180C 209.193,182.22 210.193,184.72 210.5,187.5C 209.325,187.719 208.325,187.386 207.5,186.5C 204.116,179.623 202.449,179.956 202.5,187.5C 201.167,187.5 199.833,187.5 198.5,187.5C 198.5,182.5 198.5,177.5 198.5,172.5 Z"/></g>
<g><path style="opacity:1" fill="#c2b8a6" d="M 228.5,172.5 C 229.5,172.5 230.5,172.5 231.5,172.5C 231.5,177.5 231.5,182.5 231.5,187.5C 230.5,187.5 229.5,187.5 228.5,187.5C 228.5,182.5 228.5,177.5 228.5,172.5 Z"/></g>
<g><path style="opacity:1" fill="#ef0000" d="M 248.5,172.5 C 252.437,172.207 256.27,172.54 260,173.5C 261.936,180.915 259.103,183.582 251.5,181.5C 251.5,183.5 251.5,185.5 251.5,187.5C 250.5,187.5 249.5,187.5 248.5,187.5C 248.5,184.5 248.5,181.5 248.5,178.5C 251.5,178.5 254.5,178.5 257.5,178.5C 257.5,177.5 257.5,176.5 257.5,175.5C 254.5,175.5 251.5,175.5 248.5,175.5C 248.5,174.5 248.5,173.5 248.5,172.5 Z"/></g>
<g><path style="opacity:1" fill="#e90000" d="M 311.5,172.5 C 314.833,172.5 318.167,172.5 321.5,172.5C 321.5,173.5 321.5,174.5 321.5,175.5C 318.833,175.5 316.167,175.5 313.5,175.5C 313.5,176.5 313.5,177.5 313.5,178.5C 319.986,176.835 322.819,179.168 322,185.5C 318.506,187.377 314.673,188.044 310.5,187.5C 310.5,186.5 310.5,185.5 310.5,184.5C 313.167,184.5 315.833,184.5 318.5,184.5C 318.5,183.5 318.5,182.5 318.5,181.5C 310.766,182.792 308.433,179.792 311.5,172.5 Z"/></g>
<g><path style="opacity:1" fill="#e40000" d="M 382.5,172.5 C 383.496,172.414 384.329,172.748 385,173.5C 385.667,177.833 385.667,182.167 385,186.5C 383.612,187.554 382.112,187.72 380.5,187C 378.542,184.252 376.709,181.418 375,178.5C 374.502,181.482 374.335,184.482 374.5,187.5C 373.5,187.5 372.5,187.5 371.5,187.5C 371.5,182.833 371.5,178.167 371.5,173.5C 373.199,173.34 374.866,173.506 376.5,174C 377.874,176.583 379.374,179.083 381,181.5C 381.259,178.413 381.759,175.413 382.5,172.5 Z"/></g>
<g><path style="opacity:1" fill="#e80000" d="M 402.5,172.5 C 414.319,170.812 417.986,175.479 413.5,186.5C 409.906,187.426 406.24,187.759 402.5,187.5C 402.5,182.5 402.5,177.5 402.5,172.5 Z"/></g>
<g><path style="opacity:1" fill="#020206" d="M 119.5,175.5 C 121.5,175.5 123.5,175.5 125.5,175.5C 125.5,178.5 125.5,181.5 125.5,184.5C 123.5,184.5 121.5,184.5 119.5,184.5C 119.5,181.5 119.5,178.5 119.5,175.5 Z"/></g>
<g><path style="opacity:1" fill="#030000" d="M 405.5,175.5 C 407.5,175.5 409.5,175.5 411.5,175.5C 411.5,178.5 411.5,181.5 411.5,184.5C 409.5,184.5 407.5,184.5 405.5,184.5C 405.5,181.5 405.5,178.5 405.5,175.5 Z"/></g>
<g><path style="opacity:1" fill="#b50000" d="M 414.5,193.5 C 296.829,192.835 179.495,193.502 62.5,195.5C 61.596,194.791 61.2627,193.791 61.5,192.5C 179.335,192.167 297.001,192.5 414.5,193.5 Z"/></g>
<g><path style="opacity:1" fill="#f20000" d="M 414.5,193.5 C 297.505,195.498 180.171,196.165 62.5,195.5C 179.495,193.502 296.829,192.835 414.5,193.5 Z"/></g>
</svg>
